<?xml version="1.0" encoding="UTF-8" standalone="no"?>
<!-- Generator: Adobe Illustrator 19.0.0, SVG Export Plug-In . SVG Version: 6.00 Build 0)  -->

<svg
   xmlns:dc="http://purl.org/dc/elements/1.1/"
   xmlns:cc="http://creativecommons.org/ns#"
   xmlns:rdf="http://www.w3.org/1999/02/22-rdf-syntax-ns#"
   xmlns:svg="http://www.w3.org/2000/svg"
   xmlns="http://www.w3.org/2000/svg"
   xmlns:sodipodi="http://sodipodi.sourceforge.net/DTD/sodipodi-0.dtd"
   xmlns:inkscape="http://www.inkscape.org/namespaces/inkscape"
   version="1.1"
   id="Layer_1"
   x="0px"
   y="0px"
   viewBox="0 0 96 96"
   style="enable-background:new 0 0 96 96;"
   xml:space="preserve"
   sodipodi:docname="file.svg"
   inkscape:version="0.92.2 2405546, 2018-03-11"><metadata
   id="metadata11"><rdf:RDF><cc:Work
       rdf:about=""><dc:format>image/svg+xml</dc:format><dc:type
         rdf:resource="http://purl.org/dc/dcmitype/StillImage" /></cc:Work></rdf:RDF></metadata><defs
   id="defs9" /><sodipodi:namedview
   pagecolor="#ffffff"
   bordercolor="#666666"
   borderopacity="1"
   objecttolerance="10"
   gridtolerance="10"
   guidetolerance="10"
   inkscape:pageopacity="0"
   inkscape:pageshadow="2"
   inkscape:window-width="3440"
   inkscape:window-height="1385"
   id="namedview7"
   showgrid="false"
   inkscape:zoom="8.1890423"
   inkscape:cx="80.926451"
   inkscape:cy="52.734963"
   inkscape:window-x="0"
   inkscape:window-y="27"
   inkscape:window-maximized="1"
   inkscape:current-layer="XMLID_2_" />
<style
   type="text/css"
   id="style2">
	.st0{fill:#333333;}
</style>
<g
   id="XMLID_2_"
   style="fill:#000000"
   transform="translate(15.2643,-2.1980592)">
	<path
   style="fill:#000000"
   d="m 8.770768,19.343031 c -0.9,0 -1.700781,0.300391 -2.300781,0.900391 -0.6,0.6 -0.900391,1.400781 -0.900391,2.300781 v 53.599609 c 0,0.9 0.300391,1.698829 0.900391,2.298829 0.6,0.599999 1.400781,0.90039 2.300781,0.90039 h 45 c 0.9,0 1.698828,-0.300391 2.298828,-0.90039 0.6,-0.600001 0.900391,-1.398829 0.900391,-2.298829 V 40.743422 H 38.770768 c -0.9,0 -1.700781,-0.300391 -2.300781,-0.900391 -0.6,-0.6 -0.900391,-1.398828 -0.900391,-2.298828 V 19.343031 Z m 31.099609,1.300781 V 36.442641 H 55.671159 C 55.371158,35.94264 55.070768,35.543422 54.770768,35.243422 L 41.069596,21.544203 c -0.3,-0.3 -0.699219,-0.600391 -1.199219,-0.900391 z m -19.751953,29.28711 h 4.699219 v 10.347656 h 10.30664 v 4.660156 H 24.817643 V 75.284437 H 20.118424 V 64.938734 H 9.811783 v -4.660156 h 10.306641 z"
   id="XMLID_6_"
   inkscape:connector-curvature="0" />
</g>
<g
   aria-label="+"
   transform="matrix(1.5164736,0,0,1.5164736,-27.415426,-18.979199)"
   style="font-style:normal;font-weight:normal;font-size:26.66666603px;line-height:25px;font-family:sans-serif;letter-spacing:0px;word-spacing:0px;fill:#ffffff;fill-opacity:1;stroke:none;stroke-width:1px;stroke-linecap:butt;stroke-linejoin:miter;stroke-opacity:1"
   id="flowRoot4521" /></svg>